<mxfile host="app.diagrams.net" modified="2024-06-12T14:51:12.032Z" agent="Mozilla/5.0 (Windows NT 10.0; Win64; x64) AppleWebKit/537.36 (KHTML, like Gecko) Chrome/125.0.0.0 Safari/537.36" version="24.5.3" etag="ZKQjm02xpTg56j4_UoFh" type="github">
  <diagram name="PÃ¡gina-1" id="AnRYfN0CshFXFY-PqTXb">
    <mxGraphModel>
      <root>
        <mxCell id="0" />
        <mxCell id="1" parent="0" />
      </root>
    </mxGraphModel>
  </diagram>
</mxfile>
